<mxfile host="app.diagrams.net" modified="2023-09-12T20:00:09.352Z" agent="Mozilla/5.0 (Windows NT 10.0; Win64; x64) AppleWebKit/537.36 (KHTML, like Gecko) Chrome/116.0.0.0 Safari/537.36" etag="DHgsYY6BWsgN7oIGLvGI" version="21.7.4" type="google" pages="3">
  <diagram id="-3d-2jDcSvdsMymihTIO" name="Página-1">
    <mxGraphModel dx="874" dy="470" grid="1" gridSize="10" guides="1" tooltips="1" connect="1" arrows="1" fold="1" page="1" pageScale="1" pageWidth="827" pageHeight="1169" math="0" shadow="0">
      <root>
        <mxCell id="0" />
        <mxCell id="1" parent="0" />
        <mxCell id="hUZetqNrnTV5G75DdPQI-3" value="Registrar Leitor" style="ellipse;whiteSpace=wrap;html=1;" vertex="1" parent="1">
          <mxGeometry x="90" y="190" width="120" height="80" as="geometry" />
        </mxCell>
        <mxCell id="hUZetqNrnTV5G75DdPQI-4" value="Leitores Registrados" style="ellipse;whiteSpace=wrap;html=1;" vertex="1" parent="1">
          <mxGeometry x="90" y="490" width="120" height="80" as="geometry" />
        </mxCell>
        <mxCell id="hUZetqNrnTV5G75DdPQI-5" value="Emprestimo" style="ellipse;whiteSpace=wrap;html=1;" vertex="1" parent="1">
          <mxGeometry x="680" y="290" width="120" height="80" as="geometry" />
        </mxCell>
        <mxCell id="hUZetqNrnTV5G75DdPQI-6" value="Livros Emprestados" style="ellipse;whiteSpace=wrap;html=1;" vertex="1" parent="1">
          <mxGeometry x="90" y="390" width="120" height="80" as="geometry" />
        </mxCell>
        <mxCell id="hUZetqNrnTV5G75DdPQI-7" value="Histórico" style="ellipse;whiteSpace=wrap;html=1;" vertex="1" parent="1">
          <mxGeometry x="90" y="585" width="120" height="80" as="geometry" />
        </mxCell>
        <mxCell id="hUZetqNrnTV5G75DdPQI-8" value="Devolução" style="ellipse;whiteSpace=wrap;html=1;" vertex="1" parent="1">
          <mxGeometry x="680" y="440" width="120" height="80" as="geometry" />
        </mxCell>
        <mxCell id="hUZetqNrnTV5G75DdPQI-11" style="edgeStyle=orthogonalEdgeStyle;rounded=0;orthogonalLoop=1;jettySize=auto;html=1;exitX=0.5;exitY=0;exitDx=0;exitDy=0;entryX=1;entryY=0.5;entryDx=0;entryDy=0;" edge="1" parent="1" source="hUZetqNrnTV5G75DdPQI-9" target="hUZetqNrnTV5G75DdPQI-3">
          <mxGeometry relative="1" as="geometry" />
        </mxCell>
        <mxCell id="hUZetqNrnTV5G75DdPQI-12" style="edgeStyle=orthogonalEdgeStyle;rounded=0;orthogonalLoop=1;jettySize=auto;html=1;exitX=0.5;exitY=0;exitDx=0;exitDy=0;entryX=1.008;entryY=0.388;entryDx=0;entryDy=0;entryPerimeter=0;" edge="1" parent="1" source="hUZetqNrnTV5G75DdPQI-9" target="hUZetqNrnTV5G75DdPQI-18">
          <mxGeometry relative="1" as="geometry">
            <mxPoint x="210" y="320" as="targetPoint" />
          </mxGeometry>
        </mxCell>
        <mxCell id="hUZetqNrnTV5G75DdPQI-13" style="edgeStyle=orthogonalEdgeStyle;rounded=0;orthogonalLoop=1;jettySize=auto;html=1;exitX=0.25;exitY=0;exitDx=0;exitDy=0;entryX=1;entryY=0.5;entryDx=0;entryDy=0;" edge="1" parent="1" source="hUZetqNrnTV5G75DdPQI-9" target="hUZetqNrnTV5G75DdPQI-6">
          <mxGeometry relative="1" as="geometry" />
        </mxCell>
        <mxCell id="hUZetqNrnTV5G75DdPQI-14" style="edgeStyle=orthogonalEdgeStyle;rounded=0;orthogonalLoop=1;jettySize=auto;html=1;exitX=0;exitY=0.5;exitDx=0;exitDy=0;entryX=1;entryY=0.5;entryDx=0;entryDy=0;entryPerimeter=0;" edge="1" parent="1" source="hUZetqNrnTV5G75DdPQI-9" target="hUZetqNrnTV5G75DdPQI-4">
          <mxGeometry relative="1" as="geometry" />
        </mxCell>
        <mxCell id="hUZetqNrnTV5G75DdPQI-15" style="edgeStyle=orthogonalEdgeStyle;rounded=0;orthogonalLoop=1;jettySize=auto;html=1;exitX=0;exitY=1;exitDx=0;exitDy=0;entryX=1;entryY=0.5;entryDx=0;entryDy=0;" edge="1" parent="1" source="hUZetqNrnTV5G75DdPQI-9" target="hUZetqNrnTV5G75DdPQI-7">
          <mxGeometry relative="1" as="geometry" />
        </mxCell>
        <mxCell id="hUZetqNrnTV5G75DdPQI-9" value="" style="image;html=1;image=img/lib/clip_art/people/Suit_Man_Black_128x128.png" vertex="1" parent="1">
          <mxGeometry x="320" y="490" width="80" height="80" as="geometry" />
        </mxCell>
        <mxCell id="hUZetqNrnTV5G75DdPQI-16" style="edgeStyle=orthogonalEdgeStyle;rounded=0;orthogonalLoop=1;jettySize=auto;html=1;exitX=1;exitY=0;exitDx=0;exitDy=0;entryX=0;entryY=0.5;entryDx=0;entryDy=0;" edge="1" parent="1" source="hUZetqNrnTV5G75DdPQI-10" target="hUZetqNrnTV5G75DdPQI-5">
          <mxGeometry relative="1" as="geometry" />
        </mxCell>
        <mxCell id="hUZetqNrnTV5G75DdPQI-17" style="edgeStyle=orthogonalEdgeStyle;rounded=0;orthogonalLoop=1;jettySize=auto;html=1;exitX=1;exitY=0.5;exitDx=0;exitDy=0;entryX=0;entryY=0.5;entryDx=0;entryDy=0;" edge="1" parent="1" source="hUZetqNrnTV5G75DdPQI-10" target="hUZetqNrnTV5G75DdPQI-8">
          <mxGeometry relative="1" as="geometry" />
        </mxCell>
        <mxCell id="hUZetqNrnTV5G75DdPQI-10" value="" style="image;html=1;image=img/lib/clip_art/people/Scientist_Woman_128x128.png;imageBackground=none;flipH=0;flipV=0;direction=east;" vertex="1" parent="1">
          <mxGeometry x="430" y="490" width="80" height="80" as="geometry" />
        </mxCell>
        <mxCell id="hUZetqNrnTV5G75DdPQI-18" value="Livros Disponiveis" style="ellipse;whiteSpace=wrap;html=1;" vertex="1" parent="1">
          <mxGeometry x="90" y="290" width="120" height="80" as="geometry" />
        </mxCell>
      </root>
    </mxGraphModel>
  </diagram>
  <diagram id="yILG3nX_wmvYLlIyoiGk" name="Página-2">
    <mxGraphModel grid="1" page="1" gridSize="10" guides="1" tooltips="1" connect="1" arrows="1" fold="1" pageScale="1" pageWidth="827" pageHeight="1169" math="0" shadow="0">
      <root>
        <mxCell id="0" />
        <mxCell id="1" parent="0" />
        <mxCell id="F7b2UGRKWnrdmZ-qzSno-39" value="Leitor" style="swimlane;fontStyle=0;childLayout=stackLayout;horizontal=1;startSize=26;fillColor=none;horizontalStack=0;resizeParent=1;resizeParentMax=0;resizeLast=0;collapsible=1;marginBottom=0;whiteSpace=wrap;html=1;" vertex="1" parent="1">
          <mxGeometry x="120" y="135" width="140" height="140" as="geometry" />
        </mxCell>
        <mxCell id="F7b2UGRKWnrdmZ-qzSno-40" value="Nome" style="text;strokeColor=none;fillColor=none;align=left;verticalAlign=top;spacingLeft=4;spacingRight=4;overflow=hidden;rotatable=0;points=[[0,0.5],[1,0.5]];portConstraint=eastwest;whiteSpace=wrap;html=1;" vertex="1" parent="F7b2UGRKWnrdmZ-qzSno-39">
          <mxGeometry y="26" width="140" height="26" as="geometry" />
        </mxCell>
        <mxCell id="F7b2UGRKWnrdmZ-qzSno-41" value="Login" style="text;strokeColor=none;fillColor=none;align=left;verticalAlign=top;spacingLeft=4;spacingRight=4;overflow=hidden;rotatable=0;points=[[0,0.5],[1,0.5]];portConstraint=eastwest;whiteSpace=wrap;html=1;" vertex="1" parent="F7b2UGRKWnrdmZ-qzSno-39">
          <mxGeometry y="52" width="140" height="26" as="geometry" />
        </mxCell>
        <mxCell id="F7b2UGRKWnrdmZ-qzSno-42" value="Senha&lt;br&gt;&lt;br&gt;CPF" style="text;strokeColor=none;fillColor=none;align=left;verticalAlign=top;spacingLeft=4;spacingRight=4;overflow=hidden;rotatable=0;points=[[0,0.5],[1,0.5]];portConstraint=eastwest;whiteSpace=wrap;html=1;" vertex="1" parent="F7b2UGRKWnrdmZ-qzSno-39">
          <mxGeometry y="78" width="140" height="62" as="geometry" />
        </mxCell>
        <mxCell id="F7b2UGRKWnrdmZ-qzSno-43" value="Livro" style="swimlane;fontStyle=0;childLayout=stackLayout;horizontal=1;startSize=26;fillColor=none;horizontalStack=0;resizeParent=1;resizeParentMax=0;resizeLast=0;collapsible=1;marginBottom=0;whiteSpace=wrap;html=1;" vertex="1" parent="1">
          <mxGeometry x="560" y="135" width="140" height="110" as="geometry" />
        </mxCell>
        <mxCell id="F7b2UGRKWnrdmZ-qzSno-44" value="ISBN" style="text;strokeColor=none;fillColor=none;align=left;verticalAlign=top;spacingLeft=4;spacingRight=4;overflow=hidden;rotatable=0;points=[[0,0.5],[1,0.5]];portConstraint=eastwest;whiteSpace=wrap;html=1;" vertex="1" parent="F7b2UGRKWnrdmZ-qzSno-43">
          <mxGeometry y="26" width="140" height="26" as="geometry" />
        </mxCell>
        <mxCell id="F7b2UGRKWnrdmZ-qzSno-45" value="Nome" style="text;strokeColor=none;fillColor=none;align=left;verticalAlign=top;spacingLeft=4;spacingRight=4;overflow=hidden;rotatable=0;points=[[0,0.5],[1,0.5]];portConstraint=eastwest;whiteSpace=wrap;html=1;" vertex="1" parent="F7b2UGRKWnrdmZ-qzSno-43">
          <mxGeometry y="52" width="140" height="26" as="geometry" />
        </mxCell>
        <mxCell id="F7b2UGRKWnrdmZ-qzSno-46" value="Autor" style="text;strokeColor=none;fillColor=none;align=left;verticalAlign=top;spacingLeft=4;spacingRight=4;overflow=hidden;rotatable=0;points=[[0,0.5],[1,0.5]];portConstraint=eastwest;whiteSpace=wrap;html=1;" vertex="1" parent="F7b2UGRKWnrdmZ-qzSno-43">
          <mxGeometry y="78" width="140" height="32" as="geometry" />
        </mxCell>
        <mxCell id="F7b2UGRKWnrdmZ-qzSno-47" value="Histórico" style="swimlane;fontStyle=0;childLayout=stackLayout;horizontal=1;startSize=26;fillColor=none;horizontalStack=0;resizeParent=1;resizeParentMax=0;resizeLast=0;collapsible=1;marginBottom=0;whiteSpace=wrap;html=1;" vertex="1" parent="1">
          <mxGeometry x="340" y="330" width="140" height="114" as="geometry" />
        </mxCell>
        <mxCell id="F7b2UGRKWnrdmZ-qzSno-49" value="Login" style="text;strokeColor=none;fillColor=none;align=left;verticalAlign=top;spacingLeft=4;spacingRight=4;overflow=hidden;rotatable=0;points=[[0,0.5],[1,0.5]];portConstraint=eastwest;whiteSpace=wrap;html=1;" vertex="1" parent="F7b2UGRKWnrdmZ-qzSno-47">
          <mxGeometry y="26" width="140" height="26" as="geometry" />
        </mxCell>
        <mxCell id="F7b2UGRKWnrdmZ-qzSno-50" value="Senha&lt;br&gt;&lt;br&gt;CPF" style="text;strokeColor=none;fillColor=none;align=left;verticalAlign=top;spacingLeft=4;spacingRight=4;overflow=hidden;rotatable=0;points=[[0,0.5],[1,0.5]];portConstraint=eastwest;whiteSpace=wrap;html=1;" vertex="1" parent="F7b2UGRKWnrdmZ-qzSno-47">
          <mxGeometry y="52" width="140" height="62" as="geometry" />
        </mxCell>
        <mxCell id="F7b2UGRKWnrdmZ-qzSno-55" style="edgeStyle=orthogonalEdgeStyle;rounded=0;orthogonalLoop=1;jettySize=auto;html=1;exitX=0;exitY=0.5;exitDx=0;exitDy=0;" edge="1" parent="1" source="F7b2UGRKWnrdmZ-qzSno-50" target="F7b2UGRKWnrdmZ-qzSno-42">
          <mxGeometry relative="1" as="geometry">
            <Array as="points">
              <mxPoint x="340" y="400" />
              <mxPoint x="300" y="400" />
              <mxPoint x="300" y="220" />
            </Array>
          </mxGeometry>
        </mxCell>
        <mxCell id="F7b2UGRKWnrdmZ-qzSno-56" style="edgeStyle=orthogonalEdgeStyle;rounded=0;orthogonalLoop=1;jettySize=auto;html=1;exitX=1;exitY=0.5;exitDx=0;exitDy=0;entryX=0;entryY=0.5;entryDx=0;entryDy=0;" edge="1" parent="1" source="F7b2UGRKWnrdmZ-qzSno-49" target="F7b2UGRKWnrdmZ-qzSno-45">
          <mxGeometry relative="1" as="geometry">
            <Array as="points">
              <mxPoint x="480" y="400" />
              <mxPoint x="520" y="400" />
              <mxPoint x="520" y="220" />
              <mxPoint x="560" y="220" />
            </Array>
          </mxGeometry>
        </mxCell>
      </root>
    </mxGraphModel>
  </diagram>
  <diagram id="vJGoTsTrY4IlCkdrnJvV" name="Página-3">
    <mxGraphModel dx="1028" dy="1722" grid="1" gridSize="10" guides="1" tooltips="1" connect="1" arrows="1" fold="1" page="1" pageScale="1" pageWidth="827" pageHeight="1169" math="0" shadow="0">
      <root>
        <mxCell id="0" />
        <mxCell id="1" parent="0" />
        <mxCell id="8_UHHvN7KNGgvta1Kh0K-11" value="" style="rounded=0;whiteSpace=wrap;html=1;" vertex="1" parent="1">
          <mxGeometry y="-670" width="490" height="550" as="geometry" />
        </mxCell>
        <mxCell id="8_UHHvN7KNGgvta1Kh0K-13" value="" style="rounded=0;whiteSpace=wrap;html=1;" vertex="1" parent="1">
          <mxGeometry x="785" y="-670" width="630" height="550" as="geometry" />
        </mxCell>
        <mxCell id="8_UHHvN7KNGgvta1Kh0K-14" value="Devolução" style="rounded=0;whiteSpace=wrap;html=1;" vertex="1" parent="1">
          <mxGeometry y="-670" width="120" height="60" as="geometry" />
        </mxCell>
        <mxCell id="8_UHHvN7KNGgvta1Kh0K-15" value="Empréstimo" style="rounded=0;whiteSpace=wrap;html=1;" vertex="1" parent="1">
          <mxGeometry x="785" y="-670" width="120" height="60" as="geometry" />
        </mxCell>
        <mxCell id="8_UHHvN7KNGgvta1Kh0K-19" style="edgeStyle=orthogonalEdgeStyle;rounded=0;orthogonalLoop=1;jettySize=auto;html=1;exitX=0.5;exitY=1;exitDx=0;exitDy=0;entryX=0.5;entryY=0;entryDx=0;entryDy=0;" edge="1" parent="1" source="8_UHHvN7KNGgvta1Kh0K-16">
          <mxGeometry relative="1" as="geometry">
            <mxPoint x="220" y="-475" as="targetPoint" />
          </mxGeometry>
        </mxCell>
        <mxCell id="8_UHHvN7KNGgvta1Kh0K-16" value="Coloque o ISBN do livro" style="rounded=0;whiteSpace=wrap;html=1;" vertex="1" parent="1">
          <mxGeometry x="160" y="-584" width="120" height="60" as="geometry" />
        </mxCell>
        <mxCell id="8_UHHvN7KNGgvta1Kh0K-18" style="edgeStyle=orthogonalEdgeStyle;rounded=0;orthogonalLoop=1;jettySize=auto;html=1;exitX=0.5;exitY=1;exitDx=0;exitDy=0;" edge="1" parent="1" source="8_UHHvN7KNGgvta1Kh0K-16" target="8_UHHvN7KNGgvta1Kh0K-16">
          <mxGeometry relative="1" as="geometry" />
        </mxCell>
        <mxCell id="8_UHHvN7KNGgvta1Kh0K-25" style="edgeStyle=orthogonalEdgeStyle;rounded=0;orthogonalLoop=1;jettySize=auto;html=1;exitX=0;exitY=0.5;exitDx=0;exitDy=0;entryX=1;entryY=0.5;entryDx=0;entryDy=0;" edge="1" parent="1" source="8_UHHvN7KNGgvta1Kh0K-20" target="8_UHHvN7KNGgvta1Kh0K-21">
          <mxGeometry relative="1" as="geometry" />
        </mxCell>
        <mxCell id="8_UHHvN7KNGgvta1Kh0K-27" style="edgeStyle=orthogonalEdgeStyle;rounded=0;orthogonalLoop=1;jettySize=auto;html=1;exitX=1;exitY=0.5;exitDx=0;exitDy=0;entryX=0;entryY=0.5;entryDx=0;entryDy=0;" edge="1" parent="1" source="8_UHHvN7KNGgvta1Kh0K-20" target="8_UHHvN7KNGgvta1Kh0K-26">
          <mxGeometry relative="1" as="geometry">
            <Array as="points">
              <mxPoint x="380" y="-445" />
              <mxPoint x="380" y="-410" />
            </Array>
          </mxGeometry>
        </mxCell>
        <mxCell id="8_UHHvN7KNGgvta1Kh0K-20" value="O livro esta emprestado?" style="rhombus;whiteSpace=wrap;html=1;" vertex="1" parent="1">
          <mxGeometry x="180" y="-480" width="80" height="70" as="geometry" />
        </mxCell>
        <mxCell id="8_UHHvN7KNGgvta1Kh0K-29" style="edgeStyle=orthogonalEdgeStyle;rounded=0;orthogonalLoop=1;jettySize=auto;html=1;exitX=0.5;exitY=1;exitDx=0;exitDy=0;entryX=0.5;entryY=0;entryDx=0;entryDy=0;" edge="1" parent="1" source="8_UHHvN7KNGgvta1Kh0K-21" target="8_UHHvN7KNGgvta1Kh0K-22">
          <mxGeometry relative="1" as="geometry" />
        </mxCell>
        <mxCell id="8_UHHvN7KNGgvta1Kh0K-21" value="Fazer devolução" style="rounded=0;whiteSpace=wrap;html=1;" vertex="1" parent="1">
          <mxGeometry x="30" y="-475" width="120" height="60" as="geometry" />
        </mxCell>
        <mxCell id="8_UHHvN7KNGgvta1Kh0K-30" style="edgeStyle=orthogonalEdgeStyle;rounded=0;orthogonalLoop=1;jettySize=auto;html=1;exitX=1;exitY=0.5;exitDx=0;exitDy=0;" edge="1" parent="1" source="8_UHHvN7KNGgvta1Kh0K-22" target="8_UHHvN7KNGgvta1Kh0K-23">
          <mxGeometry relative="1" as="geometry" />
        </mxCell>
        <mxCell id="8_UHHvN7KNGgvta1Kh0K-22" value="Mudar estado de disponibilidade" style="rounded=0;whiteSpace=wrap;html=1;" vertex="1" parent="1">
          <mxGeometry x="30" y="-370" width="120" height="60" as="geometry" />
        </mxCell>
        <mxCell id="8_UHHvN7KNGgvta1Kh0K-28" style="edgeStyle=orthogonalEdgeStyle;rounded=0;orthogonalLoop=1;jettySize=auto;html=1;exitX=0.5;exitY=0;exitDx=0;exitDy=0;entryX=0;entryY=0.5;entryDx=0;entryDy=0;" edge="1" parent="1" source="8_UHHvN7KNGgvta1Kh0K-23" target="8_UHHvN7KNGgvta1Kh0K-26">
          <mxGeometry relative="1" as="geometry" />
        </mxCell>
        <mxCell id="8_UHHvN7KNGgvta1Kh0K-23" value="Colocar devolução no historico" style="rounded=0;whiteSpace=wrap;html=1;" vertex="1" parent="1">
          <mxGeometry x="180" y="-370" width="120" height="60" as="geometry" />
        </mxCell>
        <mxCell id="8_UHHvN7KNGgvta1Kh0K-26" value="NÃO" style="rounded=0;whiteSpace=wrap;html=1;" vertex="1" parent="1">
          <mxGeometry x="363" y="-430" width="50" height="40" as="geometry" />
        </mxCell>
        <mxCell id="8_UHHvN7KNGgvta1Kh0K-40" style="edgeStyle=orthogonalEdgeStyle;rounded=0;orthogonalLoop=1;jettySize=auto;html=1;exitX=0.5;exitY=1;exitDx=0;exitDy=0;entryX=0.5;entryY=0;entryDx=0;entryDy=0;" edge="1" parent="1" source="8_UHHvN7KNGgvta1Kh0K-32" target="8_UHHvN7KNGgvta1Kh0K-35">
          <mxGeometry relative="1" as="geometry" />
        </mxCell>
        <mxCell id="8_UHHvN7KNGgvta1Kh0K-32" value="Coloque o nome do leitor" style="rounded=0;whiteSpace=wrap;html=1;" vertex="1" parent="1">
          <mxGeometry x="1040" y="-570" width="120" height="60" as="geometry" />
        </mxCell>
        <mxCell id="8_UHHvN7KNGgvta1Kh0K-43" style="edgeStyle=orthogonalEdgeStyle;rounded=0;orthogonalLoop=1;jettySize=auto;html=1;exitX=0.5;exitY=1;exitDx=0;exitDy=0;entryX=0.5;entryY=0;entryDx=0;entryDy=0;" edge="1" parent="1" source="8_UHHvN7KNGgvta1Kh0K-33" target="8_UHHvN7KNGgvta1Kh0K-36">
          <mxGeometry relative="1" as="geometry" />
        </mxCell>
        <mxCell id="8_UHHvN7KNGgvta1Kh0K-33" value="Coloque o ISBN do livro" style="rounded=0;whiteSpace=wrap;html=1;" vertex="1" parent="1">
          <mxGeometry x="860" y="-450" width="120" height="60" as="geometry" />
        </mxCell>
        <mxCell id="8_UHHvN7KNGgvta1Kh0K-49" style="edgeStyle=orthogonalEdgeStyle;rounded=0;orthogonalLoop=1;jettySize=auto;html=1;exitX=0.5;exitY=0;exitDx=0;exitDy=0;entryX=1;entryY=0.5;entryDx=0;entryDy=0;" edge="1" parent="1" source="8_UHHvN7KNGgvta1Kh0K-34" target="8_UHHvN7KNGgvta1Kh0K-32">
          <mxGeometry relative="1" as="geometry" />
        </mxCell>
        <mxCell id="8_UHHvN7KNGgvta1Kh0K-34" value="Registrar leitor" style="rounded=0;whiteSpace=wrap;html=1;" vertex="1" parent="1">
          <mxGeometry x="1241" y="-450" width="120" height="60" as="geometry" />
        </mxCell>
        <mxCell id="8_UHHvN7KNGgvta1Kh0K-41" style="edgeStyle=orthogonalEdgeStyle;rounded=0;orthogonalLoop=1;jettySize=auto;html=1;exitX=0;exitY=0.5;exitDx=0;exitDy=0;entryX=1;entryY=0.5;entryDx=0;entryDy=0;" edge="1" parent="1" source="8_UHHvN7KNGgvta1Kh0K-35" target="8_UHHvN7KNGgvta1Kh0K-33">
          <mxGeometry relative="1" as="geometry" />
        </mxCell>
        <mxCell id="8_UHHvN7KNGgvta1Kh0K-42" style="edgeStyle=orthogonalEdgeStyle;rounded=0;orthogonalLoop=1;jettySize=auto;html=1;exitX=1;exitY=0.5;exitDx=0;exitDy=0;entryX=0;entryY=0.5;entryDx=0;entryDy=0;" edge="1" parent="1" source="8_UHHvN7KNGgvta1Kh0K-35" target="8_UHHvN7KNGgvta1Kh0K-34">
          <mxGeometry relative="1" as="geometry" />
        </mxCell>
        <mxCell id="8_UHHvN7KNGgvta1Kh0K-35" value="O leitor esta cadastrado?" style="rhombus;whiteSpace=wrap;html=1;" vertex="1" parent="1">
          <mxGeometry x="1060" y="-470" width="80" height="80" as="geometry" />
        </mxCell>
        <mxCell id="8_UHHvN7KNGgvta1Kh0K-51" style="edgeStyle=orthogonalEdgeStyle;rounded=0;orthogonalLoop=1;jettySize=auto;html=1;exitX=0.5;exitY=1;exitDx=0;exitDy=0;entryX=0;entryY=0.5;entryDx=0;entryDy=0;" edge="1" parent="1" source="8_UHHvN7KNGgvta1Kh0K-36" target="8_UHHvN7KNGgvta1Kh0K-37">
          <mxGeometry relative="1" as="geometry" />
        </mxCell>
        <mxCell id="8_UHHvN7KNGgvta1Kh0K-57" style="edgeStyle=orthogonalEdgeStyle;rounded=0;orthogonalLoop=1;jettySize=auto;html=1;exitX=0;exitY=0.5;exitDx=0;exitDy=0;entryX=0;entryY=0.5;entryDx=0;entryDy=0;" edge="1" parent="1" source="8_UHHvN7KNGgvta1Kh0K-36" target="8_UHHvN7KNGgvta1Kh0K-55">
          <mxGeometry relative="1" as="geometry" />
        </mxCell>
        <mxCell id="8_UHHvN7KNGgvta1Kh0K-36" value="O livro esta cadastrado?" style="rhombus;whiteSpace=wrap;html=1;" vertex="1" parent="1">
          <mxGeometry x="875" y="-350" width="90" height="80" as="geometry" />
        </mxCell>
        <mxCell id="8_UHHvN7KNGgvta1Kh0K-47" style="edgeStyle=orthogonalEdgeStyle;rounded=0;orthogonalLoop=1;jettySize=auto;html=1;exitX=1;exitY=0.5;exitDx=0;exitDy=0;entryX=0;entryY=0.5;entryDx=0;entryDy=0;" edge="1" parent="1" source="8_UHHvN7KNGgvta1Kh0K-37" target="8_UHHvN7KNGgvta1Kh0K-38">
          <mxGeometry relative="1" as="geometry" />
        </mxCell>
        <mxCell id="8_UHHvN7KNGgvta1Kh0K-37" value="Fazer emprestimo" style="rounded=0;whiteSpace=wrap;html=1;" vertex="1" parent="1">
          <mxGeometry x="1000" y="-270" width="120" height="60" as="geometry" />
        </mxCell>
        <mxCell id="8_UHHvN7KNGgvta1Kh0K-48" style="edgeStyle=orthogonalEdgeStyle;rounded=0;orthogonalLoop=1;jettySize=auto;html=1;exitX=1;exitY=0.5;exitDx=0;exitDy=0;entryX=0;entryY=0.5;entryDx=0;entryDy=0;" edge="1" parent="1" source="8_UHHvN7KNGgvta1Kh0K-38" target="8_UHHvN7KNGgvta1Kh0K-39">
          <mxGeometry relative="1" as="geometry" />
        </mxCell>
        <mxCell id="8_UHHvN7KNGgvta1Kh0K-38" value="Mudar estado de disponibilidade do livro" style="rounded=0;whiteSpace=wrap;html=1;" vertex="1" parent="1">
          <mxGeometry x="1130" y="-270" width="120" height="60" as="geometry" />
        </mxCell>
        <mxCell id="8_UHHvN7KNGgvta1Kh0K-54" style="edgeStyle=orthogonalEdgeStyle;rounded=0;orthogonalLoop=1;jettySize=auto;html=1;exitX=0.5;exitY=1;exitDx=0;exitDy=0;entryX=0.5;entryY=0;entryDx=0;entryDy=0;" edge="1" parent="1" source="8_UHHvN7KNGgvta1Kh0K-39">
          <mxGeometry relative="1" as="geometry">
            <mxPoint x="1320" y="-180" as="targetPoint" />
          </mxGeometry>
        </mxCell>
        <mxCell id="8_UHHvN7KNGgvta1Kh0K-39" value="Colocar emprestimo no historico" style="rounded=0;whiteSpace=wrap;html=1;" vertex="1" parent="1">
          <mxGeometry x="1260" y="-270" width="120" height="60" as="geometry" />
        </mxCell>
        <mxCell id="8_UHHvN7KNGgvta1Kh0K-55" value="" style="ellipse;html=1;shape=endState;fillColor=#000000;strokeColor=#ff0000;" vertex="1" parent="1">
          <mxGeometry x="1305" y="-180" width="30" height="30" as="geometry" />
        </mxCell>
      </root>
    </mxGraphModel>
  </diagram>
</mxfile>
